<?xml version="1.0" encoding="UTF-8"?>
<svg xmlns="http://www.w3.org/2000/svg" xmlns:xlink="http://www.w3.org/1999/xlink" viewBox="0 0 1440 2018">
  <defs>
    <pattern id="GlyphicX_patten_5" data-name="GlyphicX patten 5" x="0" y="0" width="1080" height="771.43" patternTransform="translate(-3991.62 -2074.28) scale(.67 .59)" patternUnits="userSpaceOnUse" viewBox="0 0 1080 771.43">
      <g>
        <rect x="0" width="1080" height="771.43" fill="none" stroke-width="0"/>
        <g>
          <path d="M1097.56,771.09c-3.58,24.38-.55,49.75,1.82,74.51,2.95,30.87,4.5,63.41-8.78,91.43-2.96,6.25-6.58,12.07-10.6,17.62" fill="none" stroke="#fffaf0" stroke-miterlimit="10"/>
          <path d="M1080,1125.02c1.15.27,2.3.53,3.43.78,25.98,5.84,55.03,13.96,67.68,37.39,5.97,11.05,7.28,24.07,12.62,35.44,9.48,20.17,31.81,24.86,43.13,4.23,8.64-15.75,11.1-36.1,16.25-53.25,10.63-35.43,27.18-71.09,49.81-100.42,14.37-18.63,29.69-30.77,51.25-39.4,19.77-7.91,43.69-8.38,62.14-18.92,17.72-10.12,26.89-31.54,26.58-51.94-.35-22.63-11.01-40.14-25.94-56.13-13.03-13.96-23.47-30.26-31.85-47.79-8.56-17.91-14.59-37.4-27.07-52.84-3.27-4.05-6.92-7.71-10.82-11.09" fill="none" stroke="#fffaf0" stroke-miterlimit="10"/>
        </g>
        <g>
          <path d="M17.56,771.09c-3.58,24.38-.55,49.75,1.82,74.51,2.95,30.87,4.5,63.41-8.78,91.43-2.96,6.25-6.58,12.07-10.6,17.62" fill="none" stroke="#fffaf0" stroke-miterlimit="10"/>
          <path d="M0,1125.02c1.15.27,2.3.53,3.43.78,25.98,5.84,55.03,13.96,67.68,37.39,5.97,11.05,7.28,24.07,12.62,35.44,9.48,20.17,31.81,24.86,43.13,4.23,8.64-15.75,11.1-36.1,16.25-53.25,10.63-35.43,27.18-71.09,49.81-100.42,14.37-18.63,29.69-30.77,51.25-39.4,19.77-7.91,43.69-8.38,62.14-18.92,17.72-10.12,26.89-31.54,26.58-51.94-.35-22.63-11.01-40.14-25.94-56.13-13.03-13.96-23.47-30.26-31.85-47.79-8.56-17.91-14.59-37.4-27.07-52.84-3.27-4.05-6.92-7.71-10.82-11.09" fill="none" stroke="#fffaf0" stroke-miterlimit="10"/>
          <path d="M652.45,771.09c-2.31,4.44-4.51,8.85-6.14,13.24-8.7,23.44-14.88,48.09-22.16,72.01-8.4,27.6-18.51,56.83-37.87,78.87-17.79,20.25-53.23,25.95-78.53,21.46-27.24-4.83-55.33-14.76-77.1-32.82-9.08-7.53-18.19-14.43-26.79-22.67-30.26-29-54.55-64.47-63.51-105.93-1.71-7.92-2.83-16.09-2.6-24.16" fill="none" stroke="#fffaf0" stroke-miterlimit="10"/>
          <path d="M308.54,771.09c2.99,29.66,8.4,59.36,18.83,87.28,11.78,31.53,25.74,63.78,51.91,86.09,18.57,15.83,40.56,27.14,63,36.72,31.2,13.31,69.02,24.05,102.84,15.92,24.71-5.94,47.44-20.71,61.97-41.69,5.91-8.54,10.47-17.84,14.31-27.49,4.04-10.16,7.29-20.72,10.5-31.17,6.67-21.75,11.03-46.99,20.82-67.5,7.27-15.23,20.82-28.11,29.13-43.18,2.66-4.83,4.68-9.85,6.1-14.99" fill="none" stroke="#fffaf0" stroke-miterlimit="10"/>
          <path d="M393.01,771.09c-1.16.57-2.28,1.22-3.35,1.98-9.37,6.68-12.27,19.9-9.58,31.09,4.16,17.34,18.98,35.86,30.07,49.51,20.43,25.14,45,45.08,77.33,51.79,20.88,4.33,48.29,8.54,65.75-6.51,18.65-16.07,27.2-50,36.64-71.93,4.78-11.11,9.62-22.45,10.65-34.5.62-7.24-.39-14.84-3.3-21.43" fill="none" stroke="#fffaf0" stroke-miterlimit="10"/>
          <path d="M945.1,771.09c14.7,16.01,33.99,26.92,52.2,38.79,18.29,11.91,36.39,25.73,46.39,45.13,6.96,13.51,9.32,30.46,1.89,43.71-5.21,9.28-14.36,15.51-22.61,22.22-12.45,10.13-27.59,22.54-35.87,36.31-8.2,13.64-15.52,28.05-19.5,43.53-2.96,11.51-2.92,25.6-12.18,34.29-5.98,5.62-12.86,4.86-20.22,2.03-18.94-7.29-16.57-29.81-17.57-46.12-1.68-27.48-6.87-55.4-20.79-79.16-4.89-8.35-11-16.17-18.09-22.92-11.06-10.52-24.98-16.8-37.63-25.13-13.57-8.93-27.79-17.15-43.3-22.19-15.46-5.03-32.57-5.91-45.47-16.46-10.59-8.66-15.19-23.18-11.67-36.42,1.77-6.66,5.38-12.65,10.14-17.63" fill="none" stroke="#fffaf0" stroke-miterlimit="10"/>
          <path d="M702.59,771.09c-8.39,15.95-15.14,34.95-8.94,52.81,5.15,14.83,22.28,26.16,35.86,32.81,27.64,13.55,59.05,22.4,87.87,33.73,7.37,2.9,14.86,5.86,21.08,10.77,6.02,4.75,10.55,11.1,14.84,17.46,3.73,5.54,7.36,11.19,10.77,16.96,9.18,15.53,16.79,31.94,20.74,49.47,3.37,14.98,6.51,32.67,5.89,47.89-.6,14.64-2.3,29.67,5.6,42.92,8.25,13.84,24.99,20.86,41.09,21.42,15.4.53,31.59-4.57,41.6-16.27,11.68-13.64,12.78-32.46,16.27-49.28,4.21-20.28,13.51-41.85,27.94-56.91,13.56-14.17,30.67-25.23,41.14-42.18,10.77-17.42,12.78-38.81,12.5-59.28-.11-8.22-.56-16.49-2.56-24.46-3.15-12.54-10.03-23.86-18.08-33.96-10.04-12.6-21.84-25.21-35.21-34.28-5.1-3.46-10.4-6.58-15.76-9.61" fill="none" stroke="#fffaf0" stroke-miterlimit="10"/>
          <path d="M837.52,771.09c-8.73,3.67-17.79,6.34-26.75,9.74-5.18,1.97-10.63,4.25-13.75,8.83-4.96,7.28-1.74,18.32,4.22,24.22,5.9,5.84,17.75,6.53,25.46,8.65,20.4,5.6,41.09,12.38,57.83,25.8,19.95,15.99,32.04,39.52,44.58,61.81,5.85,10.4,12.34,21.12,22.59,27.24,3.86,2.3,8.34,3.9,12.8,3.35,7.75-.95,13.22-7.84,17.7-14.24,4.41-6.29,8.72-12.65,12.95-19.07,3.89-5.92,7.77-12.02,9.49-18.89,4.23-16.82-5.46-34.33-18.3-45.98-12.84-11.65-28.76-19.33-42.5-29.91-9.48-7.3-17.84-15.93-25.59-25.02-4.33-5.07-8.26-11.27-12.8-16.53" fill="none" stroke="#fffaf0" stroke-miterlimit="10"/>
        </g>
        <g>
          <path d="M1080,236.4c8.41-8.66,17.24-17.1,23.95-26.75,13.19-18.95,23.05-40.25,28.67-62.67,4.1-16.37,7.96-33.25,9.56-50.07,1.71-17.88,1.96-36.59,10.29-52.96,10.38-20.4,32.81-33.66,55.69-34.4,22.88-.74,45.5,10.47,60.01,28.18,9.95,12.15,14.67,27.24,23.94,39.55,9.17,12.18,22.89,20.33,35.92,27.75,18,10.26,37.48,21.72,44.96,41.04,7.04,18.18.4,40.7-15.38,52.15-10.19,7.39-22.94,10.12-35.27,12.66-7.2,1.49-13.93,3.03-20.32,5.06-11.52,3.65-21.96,8.86-32.08,18.06-20.11,17-35.21,39.41-45.84,63.5-12.88,29.17-25.9,55.33-62.55,49.95-14.97-2.22-28.31-10.35-41.19-18.31-13.45-8.32-26.9-16.63-40.36-24.95" fill="none" stroke="#fffaf0" stroke-miterlimit="10"/>
          <path d="M1097.56-.34c-3.58,24.38-.55,49.75,1.82,74.51,2.95,30.87,4.5,63.41-8.78,91.43-2.96,6.25-6.58,12.07-10.6,17.62" fill="none" stroke="#fffaf0" stroke-miterlimit="10"/>
          <path d="M1080,353.6c1.15.27,2.3.53,3.43.78,25.98,5.84,55.03,13.96,67.68,37.39,5.97,11.05,7.28,24.07,12.62,35.44,9.48,20.17,31.81,24.86,43.13,4.23,8.64-15.75,11.1-36.1,16.25-53.25,10.63-35.43,27.18-71.09,49.81-100.42,14.37-18.63,29.69-30.77,51.25-39.4,19.77-7.91,43.69-8.38,62.14-18.92,17.72-10.12,26.89-31.54,26.58-51.94-.35-22.63-11.01-40.14-25.94-56.13-13.03-13.96-23.47-30.26-31.85-47.79-8.56-17.91-14.59-37.4-27.07-52.84-3.27-4.05-6.92-7.71-10.82-11.09" fill="none" stroke="#fffaf0" stroke-miterlimit="10"/>
          <path d="M1080,424.24c2.08,1.85,4.11,3.73,6.03,5.63,12.25,12.09,20.94,27.35,27.78,43.14,11.35,26.19,18.14,55.81,19.66,84.32,1.6,29.88-2.84,60.2-15.02,87.66-8.18,18.44-21.66,33.28-38.45,41.93" fill="none" stroke="#fffaf0" stroke-miterlimit="10"/>
          <path d="M1080,730.82c.19-.12.39-.24.58-.37,33.49-22.08,60.7-52.26,87.5-82.1,8.72-9.7,17.69-19.85,21.37-32.36,2.56-8.7,2.37-17.97,1.65-27.02-3.2-40.49-16.36-79.33-32.81-116.21-11.5-25.79-25.79-72.39-49.72-88.77-8.51-5.82-18.36-10.96-28.58-15.26" fill="none" stroke="#fffaf0" stroke-miterlimit="10"/>
          <path d="M1080,496.92c10.04,20.47,14.92,43.71,16.32,65.95.33,5.25.66,10.52.63,15.78-.02,4.27-.28,8.53-.97,12.75-1.78,10.95-7.39,24.21-15.98,33.57" fill="none" stroke="#fffaf0" stroke-miterlimit="10"/>
        </g>
        <g>
          <path d="M134.77,195.71c-4.64,2.86-9.31,6.35-12.29,10-5.56,6.79-5.52,16.37-7.48,24.93-2.27,9.86-8.01,19.41-17.09,23.86-9.08,4.45-21.6,2.33-26.98-6.24-4.7-7.48-2.97-17.48,1.25-25.24,4.22-7.76,10.61-14.1,15.67-21.35,8.93-12.78,16.59-26.51,23.9-40.37,5.78-10.96,13.32-21.97,24.79-26.64,12.6-5.13,29.29.19,34.46,12.77,1.39,3.39,1.94,7.07,2.24,10.72.38,4.67.36,9.53-1.47,13.85-2.4,5.68-7.6,9.72-13.1,12.51-5.5,2.79-11.46,4.59-16.97,7.35-2.14,1.07-4.53,2.38-6.92,3.85Z" fill="none" stroke="#fffaf0" stroke-miterlimit="10"/>
          <path d="M138.44,232.34c2.74-5.72,5.99-11.16,9.98-16.1,12.18-15.05,31.56-13.55,47.17-24.06,11.28-7.59,20.16-19.82,20.7-33.4.7-17.54-11.9-38.96-22.8-51.94-11.75-13.99-26.8-25.9-44.48-30.47-17.69-4.57-38.18-.7-50.65,12.64-21.79,23.3-5.56,52.74-16.51,77.93-6.99,16.07-20.55,30.68-31.02,44.98-11.1,15.17-22.8,32.85-18.97,51.25,3.04,14.58,15.13,25.34,27.01,34.32,11.3,8.55,35.6,23.95,49.45,12.09,3.02-2.59,5.03-6.14,6.76-9.71,6.59-13.57,10.07-28.4,14.33-42.88,2.47-8.38,5.27-16.78,9.04-24.65Z" fill="none" stroke="#fffaf0" stroke-miterlimit="10"/>
          <path d="M623.94,308.86c5.28-.34,10.69.66,15.82-.63,8.51-2.12,14.21-9.83,20.9-15.51,7.71-6.55,18.02-10.77,27.97-8.91,9.94,1.86,18.71,11.05,17.9,21.13-.71,8.81-8.07,15.79-16.09,19.49-8.03,3.7-16.93,4.96-25.32,7.75-7.85,2.61-15.25,6.54-23.25,8.67-8,2.13-17.1,2.23-23.94-2.43-11.99-8.16-9.62-28.56,6.01-29.57Z" fill="none" stroke="#fffaf0" stroke-miterlimit="10"/>
          <path d="M674.42,350.25c16.03-8.42,32.59-8.91,49.13-15.44,10.7-4.23,20.65-11.53,25.66-21.89,7.68-15.87,2.29-35.11-6.59-50.36-10.45-17.94-35.35-8.98-51.13-4.13-25.03,7.69-50.07,15.38-75.1,23.07-17.97,5.52-37.92,12.7-45.85,29.74-6.28,13.5-3.02,29.36,1.13,43.66,3.95,13.61,14.22,40.48,32.41,39.25,3.97-.27,7.7-1.91,11.23-3.74,13.4-6.94,25.05-16.75,37.12-25.81,6.99-5.24,14.26-10.3,21.98-14.36Z" fill="none" stroke="#fffaf0" stroke-miterlimit="10"/>
          <path d="M745.6,338.22c10-5.52,19.21-12.12,26.06-21.59,17.98-24.83,12.21-59.07-11.99-77.42-18.64-14.13-43.54-16.2-64.87-7.59-23.74,9.58-47.24,19.88-71.59,27.87-23.52,7.71-46.86,10.51-70.63,16.61-2.45.63-4.9,1.31-7.25,2.25-10.38,4.18-18.25,13.5-21.9,24.08s-3.37,22.25-.54,33.07c2.93,11.2,10.64,22.6,15.03,33.72,5.56,14.08,11.39,28.57,22.07,39.3,8.41,8.43,25.86,18.9,38.53,17.01,12.48-1.86,27.6-17.84,37.82-25.14,23.59-16.86,48.42-30.63,73.57-44.52,11.37-6.28,24.07-11.23,35.69-17.64Z" fill="none" stroke="#fffaf0" stroke-miterlimit="10"/>
          <path d="M710.82,377.26c-21.06,9.17-39.46,22.24-59.67,36.5-24.44,17.24-48.84,34.53-73.26,51.79-7.41,5.24-16.3,10.74-24.95,7.98-8.25-2.63-12.56-11.99-13-20.64-.44-8.65,1.96-17.18,2.44-25.83,1.05-19.01-7.21-37.25-16.61-53.81-9.4-16.55-20.27-32.65-25.29-51.01-5.02-18.36-2.98-40.12,10.72-53.33,10.11-9.75,24.73-13.26,38.74-14.12,14.01-.86,28.15.53,42.08-1.24,39.99-5.09,67.98-32.84,94.38-60.39,12.08-12.61,28.96-20.5,46.38-21.68,25.52-1.73,50.86,10.97,67.37,30.51,16.51,19.54,24.72,45.2,26.11,70.74.95,17.46-1.2,35.36-8.54,51.23-7.34,15.87-20.23,29.56-36.59,35.73-10.32,3.9-21.5,4.7-32.4,6.44-13.94,2.23-26.33,6.09-37.92,11.13Z" fill="none" stroke="#fffaf0" stroke-miterlimit="10"/>
          <path d="M525.28,466.94c-4.58-17.25-5.8-35.57-8.84-53.29-6.48-37.71-30.22-62.53-51.13-92.64-12.64-18.2-16.88-44.81-2.6-61.75,13.11-15.56,36.04-17.41,56.39-17.59,42.8-.39,84.53-2.82,111.16-40.96,14.42-20.65,20.34-45.95,31.79-68.38,13.22-25.88,30.45-30.86,58.21-26.39,30.43,4.9,60.14,15.7,85.34,33.45,25.19,17.75,45.69,42.65,56.14,71.64,9.15,25.39,10.43,52.93,9.45,79.9-.79,21.6-3.07,43.59-11.86,63.33-8.79,19.74-25.02,37.14-45.9,42.72-13.64,3.65-28.03,2.09-42.14,2.02-52.83-.24-102.56,18.83-134.9,60.93-12.01,15.64-24.1,32.08-41.28,41.77-17.17,9.69-41.14,10.55-54.81-3.67-3.67-3.81-6.37-8.44-8.62-13.23-2.71-5.78-4.76-11.77-6.38-17.89Z" fill="none" stroke="#fffaf0" stroke-miterlimit="10"/>
          <path d="M192.03,322.18c7.08-17.79,19.28-35.01,35.96-45.27,13.71-8.44,32.22-14.34,47.86-17.91,16.85-3.84,31.19-12.73,45.68-22.4,11.03-7.36,21.67-15.43,33.57-21.29,20.4-10.03,44.72-12.06,61.34,5.71,11,11.77,17.73,27.44,18.69,43.52,1.32,22.16.04,42.55,11.31,62.68,10.07,17.98,25.56,32.29,34.15,51.21,15.46,34.04,25.52,76.83,25.52,114.4,1.08,13.98,1.35,28.31-2.69,41.74-4.04,13.43-12.99,25.99-25.93,31.38-13.8,5.75-29.74,2.6-43.62-2.95-13.88-5.56-26.87-13.43-41.28-17.44-34.4-9.57-70.52,4.15-103.53,17.76-33.01,13.61-68.93,27.6-103.47,18.56-48.4-12.67-78.54-73.36-54.02-117.85,8.31-15.07,21.86-27.95,29.13-43.18,9.79-20.51,14.15-45.75,20.82-67.5,3.2-10.46,6.46-21.01,10.5-31.17Z" fill="none" stroke="#fffaf0" stroke-miterlimit="10"/>
          <path d="M230.15,558.16c20.96-5.2,39.93-16.2,58.95-26.43,28.68-15.41,58.25-30.02,91.62-22.07,12.24,2.92,23.74,8.37,35.88,11.69,12.14,3.32,25.65,4.34,36.86-1.39,10.88-5.56,18.03-16.88,20.74-28.78,2.72-11.91,1.46-24.39-1.12-36.33-4.71-21.8-12.85-44-26.7-61.74-13.86-17.75-25.34-34.34-31.1-56.72-2.44-9.48-3.87-19.27-7.32-28.43-16.83-44.63-64.79-46.18-102.97-30.27-11.23,4.68-21.73,10.95-32.98,15.59-9.46,3.89-19.58,6.07-28.52,11.21-30.97,17.78-43.81,55.12-54.2,89.28-7.28,23.92-13.45,48.57-22.16,72.01-5.32,14.33-16.65,28.84-18.49,44.21-5.1,42.75,49.85,55.95,81.51,48.16Z" fill="none" stroke="#fffaf0" stroke-miterlimit="10"/>
          <path d="M248.19,348.89c-4.23,3.48-8.26,7.2-12.05,11.14-26.84,27.87-32.36,70.27-43.38,106.38-3.19,10.47-6.42,21.2-5.89,32.13s5.58,22.3,15.24,27.43c9.56,5.08,21.54,3.04,31.15-1.96,9.6-4.99,17.55-12.59,26.14-19.18,28.46-21.84,65.11-32.73,100.88-29.96,13.18,1.02,26.31,3.82,39.51,3.01,13.2-.81,27.07-6.05,34.01-17.3,11.12-18.03-.77-39-14.62-51.32-15.37-13.68-25.65-22.93-32.78-43.28-5.66-16.14-11.51-33.98-26.09-42.93-9.81-6.02-21.95-6.82-33.43-6.01-28.72,2.01-56.49,13.6-78.69,31.85Z" fill="none" stroke="#fffaf0" stroke-miterlimit="10"/>
          <path d="M226.61,481.31c4.17,3.87,10.76,3.96,16.07,1.94,5.32-2.02,9.74-5.79,14.33-9.15,13.43-9.83,29.12-16.56,45.47-19.61,16.5-3.07,33.07,2.52,49.05-1.62,10.97-2.84,21.09-12.39,20.62-23.71-.26-6.29-3.63-11.98-6.89-17.37-5.62-9.25-11.23-18.51-16.85-27.76-4.15-6.85-8.57-13.96-15.42-18.1-12.96-7.83-29.64-2.54-43.41,3.76-25.59,11.7-40.87,25.61-51.6,51.16-5.57,13.27-25.99,46.91-11.38,60.45Z" fill="none" stroke="#fffaf0" stroke-miterlimit="10"/>
          <path d="M293.59,437.98c9.55,2.19,20.36.57,27.63-6,7.27-6.57,9.76-18.55,4.14-26.58-5.17-7.39-15.49-9.66-24.33-7.82-7.43,1.55-18.85,4.4-23.64,10.62-10.06,13.07,3.23,26.81,16.19,29.78Z" fill="none" stroke="#fffaf0" stroke-miterlimit="10"/>
          <path d="M568.53,24.11c-2.88-5.51-9.63-8.02-15.85-7.88-6.22.14-12.16,2.4-18.11,4.18-22.64,6.77-47.26,6.75-69.89-.04-8.68-2.61-17.37-6.23-26.42-5.71-9.05.52-18.64,6.98-18.8,16.04-.13,7.6,6.26,13.81,13.06,17.21,21.23,10.59,29.25,16.59,42.69,36.31,8.82,12.94,17.53,21.52,33.88,16.12,17.61-5.82,69.65-56.72,59.44-76.22Z" fill="none" stroke="#fffaf0" stroke-miterlimit="10"/>
          <path d="M510.34,41.37c-7.68-1.76-16.37-.46-22.21,4.82-5.84,5.28-7.84,14.91-3.33,21.37,4.16,5.94,12.45,7.77,19.55,6.29,5.97-1.25,15.15-3.54,19-8.54,8.09-10.51-2.6-21.55-13.02-23.94Z" fill="none" stroke="#fffaf0" stroke-miterlimit="10"/>
          <path d="M1080,624.98c-5.56,6.07-12.37,10.5-20.2,11.59-16.22,2.76-30.39-9.95-45.06-17.4-18.18-9.23-40.47-11.29-55.17-25.43-8.73-8.39-13.02-21.76-10.79-33.68,3.05-16.25,13.12-15.35,23.47-25.32,9.45-9.1,8.48-24.29,6.26-37.22-2.21-12.94-4.62-27.54,3.16-38.11,4.45-6.05,11.63-9.61,18.95-11.33,25.36-5.95,52.04,8.69,67.64,29.54,4.52,6.05,8.42,12.53,11.74,19.32" fill="none" stroke="#fffaf0" stroke-miterlimit="10"/>
          <path d="M1059.34,532.82c.03,3.04-.01,6.08.04,9.05.19,11.08,3.52,21.97-.45,32.91-3.63,10-12.41,18.33-22.92,20.02-10.5,1.69-22.14-4.19-25.8-14.18-3.18-8.67-.29-18.32,3.21-26.87,3.5-8.55,7.7-17.29,7.13-26.51-.47-7.51-4.12-14.86-2.83-22.27.84-4.81,4.05-9.34,8.65-10.97,8.34-2.96,24.73,7.97,28.54,15.19,3.85,7.3,4.37,15.49,4.44,23.62Z" fill="none" stroke="#fffaf0" stroke-miterlimit="10"/>
          <path d="M292.46,589.25c24.53-7.75,48.67-19.59,74.39-18.82,27.08.81,51.73,15.54,78.33,20.73,13.07,2.55,26.72,2.83,39.13,7.66,21.75,8.47,36.83,31.64,35.78,54.95-.26,5.74-1.48,11.62-4.78,16.32-3.56,5.08-9.15,8.28-14.6,11.24-11.42,6.19-23.41,12.09-36.35,13.24-20.5,1.81-39.84-8.42-58.7-16.64-17.57-7.66-36.16-13.85-55.31-14.21-19.16-.36-39.08,5.72-52.29,19.6-16.98,17.83-23.03,47.61-46.21,55.93-17.38,6.24-36.13-3.02-52.26-12.01-12.46-6.94-24.92-13.89-37.38-20.83-9.32-5.19-18.97-10.68-25.04-19.45-5.69-8.23-7.6-18.47-8.38-28.45-1.22-15.61,1.23-32.47,12-44.72,6.01-6.84,14.49-11.21,23.35-13.32,12.29-2.93,25.18-1.69,37.58-.75,10.33.78,20.72.89,31.06.34,20.24-1.09,40.35-4.72,59.69-10.83Z" fill="none" stroke="#fffaf0" stroke-miterlimit="10"/>
          <path d="M485.34,649.49c-3.07,11.25-17.31,15.82-28.74,13.47-11.43-2.35-21.24-9.4-31.94-14.04-16.95-7.35-35.89-8.52-54.37-8.45-17.87.07-35.96,1.25-52.95,6.79-12.03,3.93-27.28,11.12-35.58,21.08-8.6,10.32-9.93,23.58-21.91,31.98-8.22,5.76-18.63,7.87-28.64,7.18-10.01-.69-19.69-4.01-28.76-8.3-14.45-6.84-28.83-18-31.21-33.81-1.33-8.86,1.51-18.15,7.14-25.11,5.63-6.97,13.88-11.64,22.65-13.47,12.18-2.54,24.75.18,37.13,1.5,29.85,3.17,57.52-4.04,86.34-10.38,28.28-6.22,57.09-10.02,86.01-11.37,17.73-.82,36.14.87,51.86,9.77,11.77,6.66,27.32,17.16,22.95,33.16Z" fill="none" stroke="#fffaf0" stroke-miterlimit="10"/>
          <path d="M245.3,675.18c4.49-3.26,5-10.22,2.23-15.03-6.06-10.52-30.4-16.92-32.98-.32-2.23,14.36,20.53,22.76,30.75,15.35Z" fill="none" stroke="#fffaf0" stroke-miterlimit="10"/>
          <path d="M753.11,568.49c1.3-5.39-2.83-11.02-8.06-12.88-11.44-4.07-34.11,6.88-25.29,21.17,7.63,12.37,30.39,3.98,33.35-8.3Z" fill="none" stroke="#fffaf0" stroke-miterlimit="10"/>
          <path d="M571.39,535.71c-11.16,2.41-22.78,2.65-32.42,9.34-8.21,5.7-14.41,14.26-17.58,23.71-6.66,19.82-2.46,44.72,14.26,57.97,6.99,5.55,14.88,9.95,23.26,13.02,8.61,3.15,15.4,2.64,24.41,2.39,19.36-.54,39.35-2.01,57.99,4.36,21.01,7.18,37.48,23.39,56.41,34.97,24.88,15.22,55.57,22.4,83.82,15.16,28.25-7.25,52.94-30.46,57.73-59.23,2.3-13.8.14-27.89-.42-41.87-.83-20.9,1.95-41.93,8.19-61.89,7.67-24.51,20.62-50.18,12.46-74.53-5.94-17.7-22.36-30.33-40.08-36.21-16.87-5.6-33.77-5.09-51.26-3.88-17.22,1.19-34.6,3.97-50.35,11.36-21.33,10.01-39.14,27.2-55.47,43.93-11.53,11.81-22.33,24.42-35.18,34.78-16.19,13.05-35.45,22.25-55.78,26.63Z" fill="none" stroke="#fffaf0" stroke-miterlimit="10"/>
          <path d="M819.39,512.56c-1.42,15.27-7.15,29.76-10.91,44.64-5.87,23.26-7.14,48.3-19.27,69-8.19,13.98-21.12,22.29-37.65,19.98-7.29-1.02-14.25-3.62-21.1-6.33-8.09-3.2-16.12-6.58-24.07-10.12-19.43-8.65-40.65-10.5-61.76-11.44-9.06-.4-18.18-.43-27.08-2.15-10.37-2-21.81-4.74-27.89-13.92-6.16-9.32-7.72-21.9-2.97-32.16,6.61-14.26,22.43-21.84,37.69-25.59,15.27-3.75,31.37-4.91,45.59-11.62,27.82-13.13,38.27-43.61,62.57-60.74,12.74-8.98,26.37-14.35,42.37-13.64,12.31.55,26.47,5.2,34.21,15.26,8.33,10.83,11.52,25.4,10.28,38.85Z" fill="none" stroke="#fffaf0" stroke-miterlimit="10"/>
          <path d="M789.41,550.59c.65,21.43-15.54,39.98-34.14,48.39-8.41,3.8-17.46,6.14-26.51,7.85-9.99,1.89-20.29,3.18-30.3,1.37-10.01-1.8-19.79-7.09-25-15.82-7.22-12.11-3.22-29.57,8.53-37.34,6.76-4.47,13.54-4.66,21.08-5.43,13.4-1.37,14.99-16.81,20.46-26.19,3.15-5.4,7.48-10.29,13.11-13.01,24.21-11.74,51.44,16.27,52.73,39.1.02.36.04.72.05,1.08Z" fill="none" stroke="#fffaf0" stroke-miterlimit="10"/>
          <path d="M886.18,23.36c5.44,3.42,10.36,7.73,15.08,12.13,16.66,15.55,32.07,33.19,52.38,43.52,6.42,3.26,13.32,5.8,18.89,10.35,10.57,8.64,10.3,24.96,3.39,35.6-7.62,11.72-25.87,9.05-32.25-2.14-2.85-4.99-4.01-10.73-5.68-16.23-6.55-21.55-21.37-36.2-38.02-50.44-11.07-9.47-24.66-16.64-39.2-17.55-5.98-.37-17.31-.17-16.72-9.16.3-4.53,3.97-8.18,8.02-10.24,8.22-4.17,18.31-3.33,26.79.28,2.55,1.09,4.98,2.39,7.32,3.87Z" fill="none" stroke="#fffaf0" stroke-miterlimit="10"/>
          <path d="M0,236.4c8.41-8.66,17.24-17.1,23.95-26.75,13.19-18.95,23.05-40.25,28.67-62.67,4.1-16.37,7.96-33.25,9.56-50.07,1.71-17.88,1.96-36.59,10.29-52.96,10.38-20.4,32.81-33.66,55.69-34.4,22.88-.74,45.5,10.47,60.01,28.18,9.95,12.15,14.67,27.24,23.94,39.55,9.17,12.18,22.89,20.33,35.92,27.75,18,10.26,37.48,21.72,44.96,41.04,7.04,18.18.4,40.7-15.38,52.15-10.19,7.39-22.94,10.12-35.27,12.66-7.2,1.49-13.93,3.03-20.32,5.06-11.52,3.65-21.96,8.86-32.08,18.06-20.11,17-35.21,39.41-45.84,63.5-12.88,29.17-25.9,55.33-62.55,49.95-14.97-2.22-28.31-10.35-41.19-18.31C26.9,320.83,13.45,312.52,0,304.2" fill="none" stroke="#fffaf0" stroke-miterlimit="10"/>
          <path d="M17.56-.34c-3.58,24.38-.55,49.75,1.82,74.51,2.95,30.87,4.5,63.41-8.78,91.43C7.64,171.86,4.03,177.68,0,183.23" fill="none" stroke="#fffaf0" stroke-miterlimit="10"/>
          <path d="M0,353.6c1.15.27,2.3.53,3.43.78,25.98,5.84,55.03,13.96,67.68,37.39,5.97,11.05,7.28,24.07,12.62,35.44,9.48,20.17,31.81,24.86,43.13,4.23,8.64-15.75,11.1-36.1,16.25-53.25,10.63-35.43,27.18-71.09,49.81-100.42,14.37-18.63,29.69-30.77,51.25-39.4,19.77-7.91,43.69-8.38,62.14-18.92,17.72-10.12,26.89-31.54,26.58-51.94-.35-22.63-11.01-40.14-25.94-56.13-13.03-13.96-23.47-30.26-31.85-47.79-8.56-17.91-14.59-37.4-27.07-52.84-3.27-4.05-6.92-7.71-10.82-11.09" fill="none" stroke="#fffaf0" stroke-miterlimit="10"/>
          <path d="M237.22,771.09c-12.61-10.91-28-18.75-43.04-26.29-21.86-10.96-43.71-21.92-65.57-32.88-12.87-6.46-26.22-13.04-40.61-13.75-30.97-1.53-57.4,25.44-66.48,55.09-1.8,5.87-3.08,11.82-3.96,17.84" fill="none" stroke="#fffaf0" stroke-miterlimit="10"/>
          <path d="M1080,183.23c-13.39,18.43-31.44,33.78-46.1,51.51-19.07,23.06-32.64,56.18-18.28,82.43,12.22,22.34,39.31,30.64,64.38,36.43" fill="none" stroke="#fffaf0" stroke-miterlimit="10"/>
          <path d="M1080,304.2c-2.95-1.82-5.89-3.64-8.84-5.46-3.72-2.3-7.51-4.66-10.26-8.05-6.74-8.29-5.54-20.86-.28-30.16,5-8.84,12.03-16.57,19.38-24.14" fill="none" stroke="#fffaf0" stroke-miterlimit="10"/>
          <path d="M1080,236.4c-7.35,7.57-14.38,15.3-19.38,24.14-5.26,9.3-6.46,21.87.28,30.16,2.76,3.39,6.55,5.75,10.26,8.05,2.95,1.82,5.89,3.64,8.84,5.46" fill="none" stroke="#fffaf0" stroke-miterlimit="10"/>
          <path d="M652.45-.34c-2.31,4.44-4.51,8.85-6.14,13.24-8.7,23.44-14.88,48.09-22.16,72.01-8.4,27.6-18.51,56.83-37.87,78.87-17.79,20.25-53.23,25.95-78.53,21.46-27.24-4.83-55.33-14.76-77.1-32.82-9.08-7.53-18.19-14.43-26.79-22.67-30.26-29-54.55-64.47-63.51-105.93-1.71-7.92-2.83-16.09-2.6-24.16" fill="none" stroke="#fffaf0" stroke-miterlimit="10"/>
          <path d="M308.54-.34c2.99,29.66,8.4,59.36,18.83,87.28,11.78,31.53,25.74,63.78,51.91,86.09,18.57,15.83,40.56,27.14,63,36.72,31.2,13.31,69.02,24.05,102.84,15.92,24.71-5.94,47.44-20.71,61.97-41.69,5.91-8.54,10.47-17.84,14.31-27.49,4.04-10.16,7.29-20.72,10.5-31.17,6.67-21.75,11.03-46.99,20.82-67.5,7.27-15.23,20.82-28.11,29.13-43.18,2.66-4.83,4.68-9.85,6.1-14.99" fill="none" stroke="#fffaf0" stroke-miterlimit="10"/>
          <path d="M337.75,771.09c.12-4.09.57-8.16,1.49-12.16,2.72-11.91,9.87-23.23,20.74-28.78,11.21-5.73,24.72-4.71,36.86-1.39,12.14,3.32,23.64,8.77,35.88,11.69,33.37,7.96,62.94-6.65,91.62-22.07,19.02-10.22,37.99-21.22,58.95-26.43,31.66-7.79,86.61,5.41,81.51,48.16-1.27,10.67-7.11,20.91-12.35,30.98" fill="none" stroke="#fffaf0" stroke-miterlimit="10"/>
          <path d="M687.95,771.09c11.65-42.12-16.97-91.57-60.12-102.86-34.54-9.04-70.47,4.95-103.47,18.56-33.01,13.61-69.13,27.33-103.53,17.76-14.4-4.01-27.39-11.88-41.28-17.44-13.88-5.56-29.81-8.7-43.62-2.95-12.95,5.39-21.9,17.95-25.93,31.38-4.04,13.43-3.77,27.76-2.69,41.74.36,4.6.77,9.2,1.23,13.81" fill="none" stroke="#fffaf0" stroke-miterlimit="10"/>
          <path d="M393.01-.34c-1.16.57-2.28,1.22-3.35,1.98-9.37,6.68-12.27,19.9-9.58,31.09,4.16,17.34,18.98,35.86,30.07,49.51,20.43,25.14,45,45.08,77.33,51.79,20.88,4.33,48.29,8.54,65.75-6.51,18.65-16.07,27.2-50,36.64-71.93,4.78-11.11,9.62-22.45,10.65-34.5.62-7.24-.39-14.84-3.3-21.43" fill="none" stroke="#fffaf0" stroke-miterlimit="10"/>
          <path d="M1080,368.74c-10.46-4.4-21.32-7.92-31.52-10.38-8.94-2.16-18.06-3.55-27.15-4.93-19.25-2.93-38.51-5.86-57.88-7.9-15.94-1.68-32.18-2.75-47.89.46-15.7,3.21-31,11.19-40.03,24.43-9.48,13.88-11.01,32.1-7.15,48.46,2.01,8.53,5.37,16.68,7.75,25.11,4.62,16.39,5.39,33.82,2.39,50.57-3.07,17.13-14.17,27.47-19.39,43.65-7.35,22.75-3.03,54.45,10.12,74.49,5.13,7.81,11.44,14.85,18.64,20.81,12.74,10.53,28.17,17.6,40.22,28.92,15.42,14.48,26.19,34.66,38.95,51.46,6.6,8.68,13.35,17.52,22.36,23.67,25.63,17.5,66.11,9.12,90.59-6.73" fill="none" stroke="#fffaf0" stroke-miterlimit="10"/>
          <path d="M1080,686.93c-13.14,6.77-28.32,9.75-44.61,7.68-18.33-2.32-35.88-12.46-45.62-28.16-4.86-7.83-7.65-16.68-11.9-24.82-4.34-8.33-7.7-10.25-15.88-13.76-15.97-6.85-33.77-12.08-46.79-24.12-23.76-21.98-19.51-52.05-4.2-76.61,1.31-2.1,2.61-4.2,3.92-6.29,10.25-16.45,20.91-34.55,18.82-53.83-1.73-15.95-12.17-30.83-9.97-46.72,1.71-12.4,11.2-22.75,22.49-28.16,11.28-5.42,24.15-6.54,36.67-6.23,24.29.61,48.64,6.46,69.74,18.5,9.49,5.41,18.94,12.36,27.33,19.84" fill="none" stroke="#fffaf0" stroke-miterlimit="10"/>
          <path d="M0,424.24c2.08,1.85,4.11,3.73,6.03,5.63,12.25,12.09,20.94,27.35,27.78,43.14,11.35,26.19,18.14,55.81,19.66,84.32,1.6,29.88-2.84,60.2-15.02,87.66C30.27,663.43,16.8,678.28,0,686.93" fill="none" stroke="#fffaf0" stroke-miterlimit="10"/>
          <path d="M0,730.82c.19-.12.39-.24.58-.37,33.49-22.08,60.7-52.26,87.5-82.1,8.72-9.7,17.69-19.85,21.37-32.36,2.56-8.7,2.37-17.97,1.65-27.02-3.2-40.49-16.36-79.33-32.81-116.21-11.5-25.79-25.79-72.39-49.72-88.77C20.08,378.18,10.23,373.04,0,368.74" fill="none" stroke="#fffaf0" stroke-miterlimit="10"/>
          <path d="M0,496.92c10.04,20.47,14.92,43.71,16.32,65.95.33,5.25.66,10.52.63,15.78-.02,4.27-.28,8.53-.97,12.75-1.78,10.95-7.39,24.21-15.98,33.57" fill="none" stroke="#fffaf0" stroke-miterlimit="10"/>
          <path d="M945.1-.34c14.7,16.01,33.99,26.92,52.2,38.79,18.29,11.91,36.39,25.73,46.39,45.13,6.96,13.51,9.32,30.46,1.89,43.71-5.21,9.28-14.36,15.51-22.61,22.22-12.45,10.13-27.59,22.54-35.87,36.31-8.2,13.64-15.52,28.05-19.5,43.53-2.96,11.51-2.92,25.6-12.18,34.29-5.98,5.62-12.86,4.86-20.22,2.03-18.94-7.29-16.57-29.81-17.57-46.12-1.68-27.48-6.87-55.4-20.79-79.16-4.89-8.35-11-16.17-18.09-22.92-11.06-10.52-24.98-16.8-37.63-25.13-13.57-8.93-27.79-17.15-43.3-22.19-15.46-5.03-32.57-5.91-45.47-16.46-10.59-8.66-15.19-23.18-11.67-36.42,1.77-6.66,5.38-12.65,10.14-17.63" fill="none" stroke="#fffaf0" stroke-miterlimit="10"/>
          <path d="M702.59-.34c-8.39,15.95-15.14,34.95-8.94,52.81,5.15,14.83,22.28,26.16,35.86,32.81,27.64,13.55,59.05,22.4,87.87,33.73,7.37,2.9,14.86,5.86,21.08,10.77,6.02,4.75,10.55,11.1,14.84,17.46,3.73,5.54,7.36,11.19,10.77,16.96,9.18,15.53,16.79,31.94,20.74,49.47,3.37,14.98,6.51,32.67,5.89,47.89-.6,14.64-2.3,29.67,5.6,42.92,8.25,13.84,24.99,20.86,41.09,21.42,15.4.53,31.59-4.57,41.6-16.27,11.68-13.64,12.78-32.46,16.27-49.28,4.21-20.28,13.51-41.85,27.94-56.91,13.56-14.17,30.67-25.23,41.14-42.18,10.77-17.42,12.78-38.81,12.5-59.28-.11-8.22-.56-16.49-2.56-24.46-3.15-12.54-10.03-23.86-18.08-33.96-10.04-12.6-21.84-25.21-35.21-34.28-5.1-3.46-10.4-6.58-15.76-9.61" fill="none" stroke="#fffaf0" stroke-miterlimit="10"/>
          <path d="M837.52-.34c-8.73,3.67-17.79,6.34-26.75,9.74-5.18,1.97-10.63,4.25-13.75,8.83-4.96,7.28-1.74,18.32,4.22,24.22,5.9,5.84,17.75,6.53,25.46,8.65,20.4,5.6,41.09,12.38,57.83,25.8,19.95,15.99,32.04,39.52,44.58,61.81,5.85,10.4,12.34,21.12,22.59,27.24,3.86,2.3,8.34,3.9,12.8,3.35,7.75-.95,13.22-7.84,17.7-14.24,4.41-6.29,8.72-12.65,12.95-19.07,3.89-5.92,7.77-12.02,9.49-18.89,4.23-16.82-5.46-34.33-18.3-45.98-12.84-11.65-28.76-19.33-42.5-29.91-9.48-7.3-17.84-15.93-25.59-25.02-4.33-5.07-8.26-11.27-12.8-16.53" fill="none" stroke="#fffaf0" stroke-miterlimit="10"/>
          <path d="M1005.24,771.09c-8.36-4.73-16.86-9.26-24.89-14.53-16.93-11.12-31.64-25.61-43.07-42.33-11.22-16.41-22.27-32.35-42.17-39.16-8.06-2.76-16.87-2.25-25.29-.93-15.1,2.35-29.38,10.52-41.24,19.82-14.94,11.71-32.47,19.21-50.66,23.7-13.15,3.25-26.97,5.64-38.09,13.37-14.84,10.31-28.48,23.55-37,39.64-.08.14-.15.29-.23.43" fill="none" stroke="#fffaf0" stroke-miterlimit="10"/>
          <path d="M750.81,771.09c5.28-5.52,11.97-9.78,19.21-12.24,7.6-2.59,15.7-3.39,23.45-5.48,19.25-5.18,35.45-17.9,53.36-26.64,16.88-8.23,35.93-12.31,52.75-2.71,4.04,2.31,8.11,4.63,11.65,7.66,12.85,11.02,22.26,26.72,33.71,39.24.05.06.11.11.16.17" fill="none" stroke="#fffaf0" stroke-miterlimit="10"/>
          <path d="M905.45,771.09c-1.69-1.96-3.47-3.79-5.39-5.39-.64-.53-1.3-1.04-1.98-1.52-17.4-12.26-38.78-3.3-55.87,4.82-1.55.74-3.12,1.42-4.7,2.08" fill="none" stroke="#fffaf0" stroke-miterlimit="10"/>
          <path d="M597.78,771.8c-1.94-4.88-4.9-9.27-8.98-12.63-20.1-16.81-51.08-2.18-73.6,1.08-33.21,4.8-67.68,4.43-101.16,6.25-8.06.44-16.57,1.04-23.34,5.3" fill="none" stroke="#fffaf0" stroke-miterlimit="10"/>
        </g>
        <g>
          <path d="M0,624.98c-5.56,6.07-12.37,10.5-20.2,11.59-16.22,2.76-30.39-9.95-45.06-17.4-18.18-9.23-40.47-11.29-55.17-25.43-8.73-8.39-13.02-21.76-10.79-33.68,3.05-16.25,13.12-15.35,23.47-25.32,9.45-9.1,8.48-24.29,6.26-37.22-2.21-12.94-4.62-27.54,3.16-38.11,4.45-6.05,11.63-9.61,18.95-11.33,25.36-5.95,52.04,8.69,67.64,29.54C-7.22,483.67-3.32,490.15,0,496.94" fill="none" stroke="#fffaf0" stroke-miterlimit="10"/>
          <path d="M0,183.23c-13.39,18.43-31.44,33.78-46.1,51.51-19.07,23.06-32.64,56.18-18.28,82.43C-52.16,339.5-25.06,347.81,0,353.6" fill="none" stroke="#fffaf0" stroke-miterlimit="10"/>
          <path d="M0,304.2c-2.95-1.82-5.89-3.64-8.84-5.46-3.72-2.3-7.51-4.66-10.26-8.05-6.74-8.29-5.54-20.86-.28-30.16C-14.38,251.7-7.35,243.97,0,236.4" fill="none" stroke="#fffaf0" stroke-miterlimit="10"/>
          <path d="M0,236.4c-7.35,7.57-14.38,15.3-19.38,24.14-5.26,9.3-6.46,21.87.28,30.16,2.76,3.39,6.55,5.75,10.26,8.05,2.95,1.82,5.89,3.64,8.84,5.46" fill="none" stroke="#fffaf0" stroke-miterlimit="10"/>
          <path d="M0,368.74c-10.46-4.4-21.32-7.92-31.52-10.38-8.94-2.16-18.06-3.55-27.15-4.93-19.25-2.93-38.51-5.86-57.88-7.9-15.94-1.68-32.18-2.75-47.89.46-15.7,3.21-31,11.19-40.03,24.43-9.48,13.88-11.01,32.1-7.15,48.46,2.01,8.53,5.37,16.68,7.75,25.11,4.62,16.39,5.39,33.82,2.39,50.57-3.07,17.13-14.17,27.47-19.39,43.65-7.35,22.75-3.03,54.45,10.12,74.49,5.13,7.81,11.44,14.85,18.64,20.81,12.74,10.53,28.17,17.6,40.22,28.92,15.42,14.48,26.19,34.66,38.95,51.46,6.6,8.68,13.35,17.52,22.36,23.67C-64.96,755.05-24.48,746.68,0,730.82" fill="none" stroke="#fffaf0" stroke-miterlimit="10"/>
          <path d="M0,686.93c-13.14,6.77-28.32,9.75-44.61,7.68-18.33-2.32-35.88-12.46-45.62-28.16-4.86-7.83-7.65-16.68-11.9-24.82-4.34-8.33-7.7-10.25-15.88-13.76-15.97-6.85-33.77-12.08-46.79-24.12-23.76-21.98-19.51-52.05-4.2-76.61,1.31-2.1,2.61-4.2,3.92-6.29,10.25-16.45,20.91-34.55,18.82-53.83-1.73-15.95-12.17-30.83-9.97-46.72,1.71-12.4,11.2-22.75,22.49-28.16,11.28-5.42,24.15-6.54,36.67-6.23,24.29.61,48.64,6.46,69.74,18.5C-17.84,409.81-8.39,416.76,0,424.24" fill="none" stroke="#fffaf0" stroke-miterlimit="10"/>
        </g>
        <g>
          <path d="M237.22-.34c-12.61-10.91-28-18.75-43.04-26.29-21.86-10.96-43.71-21.92-65.57-32.88-12.87-6.46-26.22-13.04-40.61-13.75-30.97-1.53-57.4,25.44-66.48,55.09-1.8,5.87-3.08,11.82-3.96,17.84" fill="none" stroke="#fffaf0" stroke-miterlimit="10"/>
          <path d="M1005.24-.34c-8.36-4.73-16.86-9.26-24.89-14.53-16.93-11.12-31.64-25.61-43.07-42.33-11.22-16.41-22.27-32.35-42.17-39.16-8.06-2.76-16.87-2.25-25.29-.93-15.1,2.35-29.38,10.52-41.24,19.82-14.94,11.71-32.47,19.21-50.66,23.7-13.15,3.25-26.97,5.64-38.09,13.37-14.84,10.31-28.48,23.55-37,39.64-.08.14-.15.29-.23.43" fill="none" stroke="#fffaf0" stroke-miterlimit="10"/>
          <path d="M750.81-.34c5.28-5.52,11.97-9.78,19.21-12.24,7.6-2.59,15.7-3.39,23.45-5.48,19.25-5.18,35.45-17.9,53.36-26.64,16.88-8.23,35.93-12.31,52.75-2.71,4.04,2.31,8.11,4.63,11.65,7.66,12.85,11.02,22.26,26.72,33.71,39.24.05.06.11.11.16.17" fill="none" stroke="#fffaf0" stroke-miterlimit="10"/>
          <path d="M905.45-.34c-1.69-1.96-3.47-3.79-5.39-5.39-.64-.53-1.3-1.04-1.98-1.52-17.4-12.26-38.78-3.3-55.87,4.82-1.55.74-3.12,1.42-4.7,2.08" fill="none" stroke="#fffaf0" stroke-miterlimit="10"/>
          <path d="M597.78.38c-1.94-4.88-4.9-9.27-8.98-12.63-20.1-16.81-51.08-2.18-73.6,1.08-33.21,4.8-67.68,4.43-101.16,6.25-8.06.44-16.57,1.04-23.34,5.3" fill="none" stroke="#fffaf0" stroke-miterlimit="10"/>
        </g>
      </g>
    </pattern>
  </defs>
  <g id="FILL">
    <rect width="1440" height="2018" fill="#071c40" stroke-width="0"/>
  </g>
  <g id="PATTERN" opacity=".07">
    <rect width="1440" height="2018" fill="url(#GlyphicX_patten_5)" stroke-width="0"/>
  </g>
</svg>